HIERARCHY
ROOT joint_0
{
	OFFSET 0.000000 0.000000 0.000000
	CHANNELS 6 Xposition Yposition Zposition Zrotation Yrotation Xrotation 
	JOINT joint_1
	{
		OFFSET 11.612000 -0.419000 106.198000
		CHANNELS 3 Zrotation Yrotation Xrotation
		JOINT joint_2
		{
			OFFSET -1.708000 -1.022000 97.564090
			CHANNELS 3 Zrotation Yrotation Xrotation
			JOINT joint_3
			{
				OFFSET -4.121000 -1.538000 97.375000
				CHANNELS 3 Zrotation Yrotation Xrotation
				JOINT joint_4
				{
					OFFSET 5.442000 -2.123000 132.795900
					CHANNELS 3 Zrotation Yrotation Xrotation
					JOINT joint_5
					{
						OFFSET 21.935000 0.195000 82.975100
						CHANNELS 3 Zrotation Yrotation Xrotation
						End Site
						{
							OFFSET 0.000000 0.000000 0.000000
						}
					}
				}
				JOINT joint_6
				{
					OFFSET 4.262000 -30.048000 73.899900
					CHANNELS 3 Zrotation Yrotation Xrotation
					JOINT joint_7
					{
						OFFSET 9.731000 -136.810010 -21.963010
						CHANNELS 3 Zrotation Yrotation Xrotation
						JOINT joint_8
						{
							OFFSET 33.360000 -35.709000 -267.597900
							CHANNELS 3 Zrotation Yrotation Xrotation
							JOINT joint_9
							{
								OFFSET 36.156000 -29.759000 -240.558040
								CHANNELS 3 Zrotation Yrotation Xrotation
								End Site
								{
									OFFSET 0.000000 0.000000 0.000000
								}
							}
						}
					}
				}
				JOINT joint_10
				{
					OFFSET 2.027000 27.734000 74.914920
					CHANNELS 3 Zrotation Yrotation Xrotation
					JOINT joint_11
					{
						OFFSET -5.183000 136.784000 -23.604980
						CHANNELS 3 Zrotation Yrotation Xrotation
						JOINT joint_12
						{
							OFFSET 29.806000 37.229000 -267.809940
							CHANNELS 3 Zrotation Yrotation Xrotation
							JOINT joint_13
							{
								OFFSET 36.890000 46.524990 -237.772030
								CHANNELS 3 Zrotation Yrotation Xrotation
								End Site
								{
									OFFSET 0.000000 0.000000 0.000000
								}
							}
						}
					}
				}
			}
		}
	}
	JOINT joint_14
	{
		OFFSET -7.290000 -102.873990 -124.314940
		CHANNELS 3 Zrotation Yrotation Xrotation
		JOINT joint_15
		{
			OFFSET -15.466000 -19.909010 -438.533020
			CHANNELS 3 Zrotation Yrotation Xrotation
			JOINT joint_16
			{
				OFFSET -26.899000 -18.922000 -464.797000
				CHANNELS 3 Zrotation Yrotation Xrotation
				JOINT joint_17
				{
					OFFSET 179.329000 -12.011000 -84.174000
					CHANNELS 3 Zrotation Yrotation Xrotation
					End Site
					{
						OFFSET 0.000000 0.000000 0.000000
					}
				}
			}
		}
	}
	JOINT joint_18
	{
		OFFSET -6.225000 101.546000 -125.479980
		CHANNELS 3 Zrotation Yrotation Xrotation
		JOINT joint_19
		{
			OFFSET -13.973000 7.996000 -438.963010
			CHANNELS 3 Zrotation Yrotation Xrotation
			JOINT joint_20
			{
				OFFSET -44.294000 5.716000 -463.813970
				CHANNELS 3 Zrotation Yrotation Xrotation
				JOINT joint_21
				{
					OFFSET 178.505000 -4.689000 -85.139000
					CHANNELS 3 Zrotation Yrotation Xrotation
					End Site
					{
						OFFSET 0.000000 0.000000 0.000000
					}
				}
			}
		}
	}
}
MOTION
Frames: 9
Frame Time: 0.016667
-3443.948242 961.620422 1125.401001 3.913777 -1.815577 0.132161 -1.001029 6.870615 0.509524 -1.050762 -1.436627 -0.180619 -0.992474 1.395479 0.078830 -0.296992 1.302200 1.085829 0.000000 0.000000 0.000000 -3.337723 -0.796578 1.582646 0.041947 -1.591441 -1.969168 1.599150 -7.285727 4.411673 0.000000 0.000000 0.000000 -2.577441 -2.056925 0.709583 -0.665575 -1.666152 2.150701 -3.010544 -9.640811 -8.691695 0.000000 0.000000 0.000000 -2.185482 2.163879 2.028114 -2.004936 0.852370 -1.446052 -1.889058 -2.599722 -1.059172 0.000000 0.000000 0.000000 4.635574 2.359553 2.140662 4.612858 -2.052538 0.908981 4.553155 -0.317568 2.147955 0.000000 0.000000 0.000000 
-3442.832764 961.767761 1125.209961 3.993593 -1.816210 0.130546 -0.980777 6.911899 0.496163 -1.029723 -1.461763 -0.180712 -0.970634 1.421608 0.079085 -0.297020 1.279030 1.085446 0.000000 0.000000 0.000000 -3.391114 -0.747273 1.664519 0.028652 -1.557583 -2.018451 1.588635 -7.256641 4.380202 0.000000 0.000000 0.000000 -2.532188 -2.055487 0.679718 -0.660201 -1.666922 2.254640 -2.999522 -9.563274 -8.645289 0.000000 0.000000 0.000000 -2.167899 2.243436 2.048097 -1.981814 0.853105 -1.479571 -1.865603 -2.663133 -1.052361 0.000000 0.000000 0.000000 4.623861 2.394768 2.139024 4.601571 -2.002645 0.914536 4.540799 -0.410756 2.139711 0.000000 0.000000 0.000000 
-3441.510010 961.856262 1125.020020 4.086523 -1.800817 0.132212 -0.949510 6.959951 0.482017 -0.997056 -1.480098 -0.175544 -0.937817 1.442960 0.073974 -0.296368 1.224401 1.082803 0.000000 0.000000 0.000000 -3.472833 -0.676825 1.774311 0.008352 -1.511066 -2.113030 1.587383 -7.260022 4.385001 0.000000 0.000000 0.000000 -2.486646 -2.056642 0.628516 -0.652745 -1.667675 2.399454 -2.994653 -9.501833 -8.612142 0.000000 0.000000 0.000000 -2.171283 2.319672 2.064837 -1.980114 0.853133 -1.508576 -1.861979 -2.745717 -1.056128 0.000000 0.000000 0.000000 4.610048 2.412128 2.142303 4.589089 -1.932444 0.912129 4.525792 -0.518098 2.129839 0.000000 0.000000 0.000000 
-3439.925049 961.861084 1124.833984 4.197811 -1.769426 0.140445 -0.893916 6.989712 0.458726 -0.938838 -1.475991 -0.158039 -0.881132 1.442681 0.059547 -0.293088 1.138426 1.070827 0.000000 0.000000 0.000000 -3.610468 -0.564953 1.948528 -0.025806 -1.440449 -2.296724 1.598431 -7.298444 4.445700 0.000000 0.000000 0.000000 -2.461518 -2.059384 0.538378 -0.641768 -1.662069 2.606289 -2.999487 -9.459254 -8.603329 0.000000 0.000000 0.000000 -2.220157 2.400425 2.068789 -2.023962 0.838084 -1.523734 -1.903013 -2.818461 -1.080169 0.000000 0.000000 0.000000 4.586859 2.415470 2.149369 4.568192 -1.847138 0.897988 4.501106 -0.620823 2.115513 0.000000 0.000000 0.000000 
-3438.114502 961.791443 1124.642944 4.322334 -1.729707 0.153657 -0.816455 6.998336 0.426591 -0.857784 -1.452367 -0.126969 -0.803330 1.425440 0.033554 -0.287554 1.033316 1.050917 0.000000 0.000000 0.000000 -3.799048 -0.417715 2.181403 -0.071805 -1.349794 -2.556243 1.619170 -7.364952 4.550078 0.000000 0.000000 0.000000 -2.452051 -2.064860 0.416096 -0.628010 -1.652726 2.866552 -3.010649 -9.423447 -8.609207 0.000000 0.000000 0.000000 -2.299806 2.491010 2.066485 -2.097951 0.809008 -1.532059 -1.974273 -2.876123 -1.117355 0.000000 0.000000 0.000000 4.558110 2.410280 2.159727 4.542600 -1.744320 0.874552 4.470531 -0.719370 2.098515 0.000000 0.000000 0.000000 
-3436.034668 961.686951 1124.500977 4.476258 -1.619744 0.170690 -0.763082 7.108907 0.416118 -0.800165 -1.450229 -0.109182 -0.747129 1.428709 0.017676 -0.281505 0.815161 1.030389 0.000000 0.000000 0.000000 -3.920387 -0.280623 2.370709 -0.118794 -1.254785 -2.812045 1.654712 -7.503928 4.702186 0.000000 0.000000 0.000000 -2.384187 -2.070805 0.280422 -0.613592 -1.651709 3.172459 -3.042374 -9.477499 -8.660195 0.000000 0.000000 0.000000 -2.412057 2.512106 2.050113 -2.211136 0.821543 -1.522612 -2.074799 -3.079624 -1.178023 0.000000 0.000000 0.000000 4.527435 2.334632 2.181224 4.516319 -1.621936 0.840846 4.437280 -0.889539 2.078257 0.000000 0.000000 0.000000 
-3433.547852 961.608093 1124.420044 4.672414 -1.400372 0.191863 -0.760819 7.299324 0.470253 -0.793098 -1.420611 -0.134052 -0.738817 1.411622 0.034328 -0.277718 0.419308 1.020903 0.000000 0.000000 0.000000 -3.906115 -0.144673 2.439077 -0.167031 -1.128077 -3.030840 1.711574 -7.747058 4.924826 0.000000 0.000000 0.000000 -2.210212 -2.058082 0.087239 -0.591992 -1.643712 3.567989 -3.103984 -9.661045 -8.782435 0.000000 0.000000 0.000000 -2.568922 2.420715 2.011657 -2.379313 0.910770 -1.492039 -2.213638 -3.538036 -1.273716 0.000000 0.000000 0.000000 4.497957 2.147063 2.220112 4.493586 -1.464123 0.794772 4.404468 -1.179170 2.054886 0.000000 0.000000 0.000000 
-3430.669678 961.541321 1124.378052 4.904949 -1.095475 0.218792 -0.792100 7.515495 0.579109 -0.818425 -1.334620 -0.191777 -0.761940 1.346744 0.075090 -0.275215 -0.114993 1.018149 0.000000 0.000000 0.000000 -3.802451 0.010913 2.426988 -0.222306 -0.960503 -3.243897 1.786760 -8.078398 5.214203 0.000000 0.000000 0.000000 -1.960507 -2.026452 -0.175948 -0.561605 -1.621988 4.062036 -3.190188 -9.938695 -8.965409 0.000000 0.000000 0.000000 -2.768967 2.247782 1.954160 -2.598100 1.054066 -1.445395 -2.390514 -4.186653 -1.399957 0.000000 0.000000 0.000000 4.467982 1.870859 2.272171 4.472650 -1.271280 0.737714 4.370885 -1.556346 2.028686 0.000000 0.000000 0.000000 
-3427.881348 961.321411 1124.489014 5.163040 -0.692969 0.249649 -0.873249 8.211010 0.648775 -0.887077 -1.485654 -0.231667 -0.821521 1.486318 0.103786 -0.268719 -0.807052 0.998805 0.000000 0.000000 0.000000 -3.576561 0.013001 2.367034 -0.253226 -0.919431 -3.345855 1.861632 -8.484569 5.472070 0.000000 0.000000 0.000000 -1.647261 -2.047065 -0.270512 -0.554794 -1.678474 4.445064 -3.302456 -10.386898 -9.175908 0.000000 0.000000 0.000000 -2.961894 1.944433 1.892199 -2.821860 1.263080 -1.366974 -2.560538 -5.007998 -1.534579 0.000000 0.000000 0.000000 4.435409 1.505000 2.334527 4.447752 -1.111797 0.672282 4.333027 -2.025334 1.997827 0.000000 0.000000 0.000000 
